# xmcd CD database file
#
# Track frame offsets:
#	150
#	30851
#	62426
#	90466
#	109994
#	136299
#	160145
#	207579
#	244533
#	268412
#
# Disc length: 3924 seconds
#
# Revision: 2
# Processed by: cddbd v1.5.1PL0 Copyright (c) Steve Scherf et al.
# Submitted via: CDex 1.51
#
DISCID=830f520a
DTITLE=Per Henrik Wallin and His Gang - Mandelstam
DYEAR=2004
DGENRE=Jazz
TTITLE0=Fånerier nr 3
TTITLE1=Harry's Idea
TTITLE2=Blues Out
TTITLE3=Tatti's Bounce
TTITLE4=Fånerier nr 8
TTITLE5=Receptet
TTITLE6=Tiveden
TTITLE7=Dixieland
TTITLE8=Mandelstam
TTITLE9=Cradle
EXTD=YEAR: 2004
EXTT0=
EXTT1=
EXTT2=
EXTT3=
EXTT4=
EXTT5=
EXTT6=
EXTT7=
EXTT8=
EXTT9=
PLAYORDER=
